<svg viewBox="0.00 0.00 666.00 227.00" xmlns="http://www.w3.org/2000/svg" xmlns:xlink="http://www.w3.org/1999/xlink"><g id="graph1" class="graph" transform="scale(1 1) rotate(0) translate(4 223)"><title>G</title><polygon fill="white" stroke="white" points="-4,5 -4,-223 663,-223 663,5 -4,5"/><g id="graph2" class="cluster"><title>cluster_a</title><polygon fill="none" stroke="lightgray" points="8,-8 8,-211 650,-211 650,-8 8,-8"/><text text-anchor="middle" x="329" y="-194.4" font-family="Times,serif" font-size="14.00">root workflow</text></g><g id="graph3" class="cluster"><title>cluster_0</title><polygon fill="none" stroke="lightblue" points="16,-101 16,-178 445,-178 445,-101 16,-101"/><text text-anchor="middle" x="230.5" y="-161.4" font-family="Times,serif" font-size="14.00">subworkflow: analysis</text></g><g id="graph4" class="cluster"><title>cluster_1</title><polygon fill="none" stroke="lightgreen" points="253,-16 253,-93 454,-93 454,-16 253,-16"/><text text-anchor="middle" x="353.5" y="-76.4" font-family="Times,serif" font-size="14.00">subworkflow: sleep</text></g><!-- f.b --><g id="node2" class="node"><title>f.b</title><polygon fill="none" stroke="lightgray" points="220,-145 166,-145 166,-109 220,-109 220,-145"/><text text-anchor="middle" x="193" y="-122.8" font-family="Times,serif" font-size="14.00">f.b</text></g><!-- analyze --><g id="node8" class="node"><title>analyze</title><ellipse fill="none" stroke="black" cx="297" cy="-127" rx="40.548" ry="18"/><text text-anchor="middle" x="297" y="-122.8" font-family="Times,serif" font-size="14.00">analyze</text></g><!-- f.b&#45;&gt;analyze --><g id="edge5" class="edge"><title>f.b-&gt;analyze</title><path fill="none" stroke="black" d="M220.003,-127C227.979,-127 237.04,-127 246.056,-127"/><polygon fill="black" stroke="black" points="246.157,-130.5 256.157,-127 246.157,-123.5 246.157,-130.5"/></g><!-- f.c --><g id="node3" class="node"><title>f.c</title><polygon fill="none" stroke="lightgray" points="437,-145 383,-145 383,-109 437,-109 437,-145"/><text text-anchor="middle" x="410" y="-122.8" font-family="Times,serif" font-size="14.00">f.c</text></g><!-- ls --><g id="node14" class="node"><title>ls</title><ellipse fill="none" stroke="black" cx="509" cy="-84" rx="27" ry="18"/><text text-anchor="middle" x="509" y="-79.8" font-family="Times,serif" font-size="14.00">ls</text></g><!-- f.c&#45;&gt;ls --><g id="edge13" class="edge"><title>f.c-&gt;ls</title><path fill="none" stroke="black" d="M437.25,-115.364C449.411,-109.973 463.955,-103.525 476.685,-97.8818"/><polygon fill="black" stroke="black" points="478.273,-101.006 485.997,-93.754 475.436,-94.607 478.273,-101.006"/></g><!-- ls_out.txt --><g id="node4" class="node"><title>ls_out.txt</title><polygon fill="none" stroke="lightgray" points="641.009,-102 572.991,-102 572.991,-66 641.009,-66 641.009,-102"/><text text-anchor="middle" x="607" y="-79.8" font-family="Times,serif" font-size="14.00">ls_out.txt</text></g><!-- preprocess --><g id="node6" class="node"><title>preprocess</title><ellipse fill="none" stroke="black" cx="77" cy="-127" rx="52.1463" ry="18"/><text text-anchor="middle" x="77" y="-122.8" font-family="Times,serif" font-size="14.00">preprocess</text></g><!-- preprocess&#45;&gt;f.b --><g id="edge4" class="edge"><title>preprocess-&gt;f.b</title><path fill="none" stroke="black" d="M129.331,-127C138.223,-127 147.302,-127 155.689,-127"/><polygon fill="black" stroke="black" points="155.876,-130.5 165.876,-127 155.876,-123.5 155.876,-130.5"/></g><!-- analyze&#45;&gt;f.c --><g id="edge6" class="edge"><title>analyze-&gt;f.c</title><path fill="none" stroke="black" d="M337.76,-127C349.074,-127 361.339,-127 372.453,-127"/><polygon fill="black" stroke="black" points="372.686,-130.5 382.686,-127 372.686,-123.5 372.686,-130.5"/></g><!-- sleep1 --><g id="node10" class="node"><title>sleep1</title><ellipse fill="none" stroke="black" cx="297" cy="-42" rx="35.9135" ry="18"/><text text-anchor="middle" x="297" y="-37.8" font-family="Times,serif" font-size="14.00">sleep1</text></g><!-- sleep2 --><g id="node12" class="node"><title>sleep2</title><ellipse fill="none" stroke="black" cx="410" cy="-42" rx="35.9135" ry="18"/><text text-anchor="middle" x="410" y="-37.8" font-family="Times,serif" font-size="14.00">sleep2</text></g><!-- sleep1&#45;&gt;sleep2 --><g id="edge9" class="edge"><title>sleep1-&gt;sleep2</title><path fill="none" stroke="black" d="M332.817,-42C342.64,-42 353.471,-42 363.809,-42"/><polygon fill="black" stroke="black" points="363.925,-45.5001 373.925,-42 363.925,-38.5001 363.925,-45.5001"/></g><!-- sleep2&#45;&gt;ls --><g id="edge11" class="edge"><title>sleep2-&gt;ls</title><path fill="none" stroke="black" d="M437.762,-53.5879C449.828,-58.812 464.156,-65.016 476.715,-70.4538"/><polygon fill="black" stroke="black" points="475.339,-73.6722 485.907,-74.4338 478.121,-67.2485 475.339,-73.6722"/></g><!-- ls&#45;&gt;ls_out.txt --><g id="edge15" class="edge"><title>ls-&gt;ls_out.txt</title><path fill="none" stroke="black" d="M536.232,-84C544.461,-84 553.772,-84 562.849,-84"/><polygon fill="black" stroke="black" points="562.929,-87.5001 572.929,-84 562.929,-80.5001 562.929,-87.5001"/></g></g></svg>